<svg width="25" height="24" viewBox="0 0 25 24" fill="none" xmlns="http://www.w3.org/2000/svg">
<g clip-path="url(#clip0_7_249)">
<path fill-rule="evenodd" clip-rule="evenodd" d="M7.25781 21C7.25781 19.8954 8.18641 19 9.33189 19C10.4774 19 11.406 19.8954 11.406 21C11.406 22.1046 10.4774 23 9.33189 23C8.18641 23 7.25781 22.1046 7.25781 21Z" fill="#3BB77E"/>
<path fill-rule="evenodd" clip-rule="evenodd" d="M18.6641 21C18.6641 19.8954 19.5927 19 20.7381 19C21.8836 19 22.8122 19.8954 22.8122 21C22.8122 22.1046 21.8836 23 20.7381 23C19.5927 23 18.6641 22.1046 18.6641 21Z" fill="#3BB77E"/>
<path fill-rule="evenodd" clip-rule="evenodd" d="M0 1C0 0.447715 0.464297 0 1.03704 0H5.18518C5.67946 0 6.10505 0.336385 6.20205 0.803743L7.07304 5H23.8519C24.1609 5 24.4539 5.13293 24.6509 5.36256C24.8479 5.59218 24.9284 5.89458 24.8705 6.18733L23.2098 14.5848C23.0675 15.2754 22.6779 15.8958 22.1091 16.3373C21.5432 16.7766 20.8358 17.011 20.1096 17H10.0475C9.32128 17.011 8.61384 16.7766 8.0479 16.3373C7.47937 15.8959 7.08984 15.2759 6.94745 14.5857C6.94739 14.5854 6.94751 14.5859 6.94745 14.5857L5.21504 6.2392C5.20801 6.21159 5.20217 6.18353 5.19758 6.15508L4.33514 2H1.03704C0.464297 2 0 1.55228 0 1ZM7.48816 7L8.98161 14.1952C9.02903 14.4254 9.1589 14.6322 9.34849 14.7793C9.53808 14.9265 9.77531 15.0047 10.0186 15.0002L10.0385 15H20.1185L20.1384 15.0002C20.3817 15.0047 20.619 14.9265 20.8085 14.7793C20.9973 14.6328 21.1268 14.4273 21.1748 14.1984L22.5984 7H7.48816Z" fill="#3BB77E"/>
</g>
<defs>
<clipPath id="clip0_7_249">
<rect width="24.8889" height="24" fill="white"/>
</clipPath>
</defs>
</svg>
