<svg width="18" height="18" viewBox="0 0 18 18" fill="none" xmlns="http://www.w3.org/2000/svg">
<path fill-rule="evenodd" clip-rule="evenodd" d="M1.07393 1.73988L1.13439 1.6767C2.74057 0.0703665 3.78654 -0.355407 4.90255 0.286352C5.22358 0.470957 5.52454 0.72936 5.93378 1.14501L7.18909 2.44669C7.88245 3.20327 8.04007 3.92898 7.8143 4.77888L7.7832 4.89139L7.74868 5.00327L7.58086 5.49562C7.22169 6.59977 7.37164 7.22273 8.64955 8.50032C9.97847 9.8289 10.5988 9.93759 11.7881 9.52199L12.0001 9.44831L12.2564 9.36507L12.3686 9.33394C13.2719 9.09292 14.035 9.28525 14.8443 10.094L15.8558 11.071L16.1535 11.3638C16.4836 11.7004 16.7018 11.9672 16.8629 12.2491C17.5007 13.3648 17.0744 14.4101 15.4219 16.0564L15.2647 16.2157C15.018 16.4535 14.7875 16.6239 14.4488 16.7847C13.8804 17.0546 13.2088 17.1563 12.4285 17.0478C10.5056 16.7804 8.0668 15.2632 4.97657 12.1737C4.72501 11.9222 4.48409 11.6756 4.25354 11.4337L3.80623 10.9563C-0.385314 6.40237 -0.755093 3.6049 0.962646 1.85042L1.07393 1.73988ZM4.92201 1.90077C4.65052 1.63311 4.4533 1.46995 4.27943 1.36996C3.89483 1.1488 3.47958 1.24229 2.71108 1.90373L2.46961 2.11945C2.42749 2.15833 2.3844 2.19869 2.34032 2.24057L2.06342 2.51026L2.03848 2.54143L1.85076 2.73003C1.39713 3.19337 1.18226 3.75886 1.36742 4.73139C1.67126 6.32724 3.06202 8.49211 5.86034 11.2897C8.77607 14.2047 10.9976 15.5868 12.6007 15.8097C13.5352 15.9397 14.0118 15.7133 14.498 15.2153L14.8687 14.8412C15.0425 14.6593 15.191 14.4944 15.3165 14.3438L15.4875 14.1283C15.9247 13.5459 15.9647 13.1965 15.7777 12.8694C15.7066 12.7449 15.6031 12.6085 15.4524 12.4417L15.248 12.2259L15.1271 12.1048L13.8511 10.8727C13.4246 10.4794 13.1332 10.4236 12.6908 10.5417L12.5631 10.5784L12.0345 10.7579C10.5011 11.2531 9.39483 11.013 7.76578 9.38431C6.07858 7.69754 5.8807 6.57114 6.44602 4.94931L6.48228 4.84509L6.58257 4.54295L6.63186 4.35036C6.71928 3.93122 6.61947 3.63898 6.16891 3.18834C6.15035 3.16979 6.12962 3.14888 6.10706 3.126L4.92201 1.90077Z" fill="#3BB77E"/>
</svg>
