<svg width="53" height="31" viewBox="0 0 53 31" fill="none" xmlns="http://www.w3.org/2000/svg">
<path d="M21.4594 27.6713C23.1191 26.1242 23.3746 23.701 22.0302 22.2588C20.6859 20.8166 18.2506 20.9016 16.591 22.4487C14.9313 23.9958 14.6758 26.4191 16.0202 27.8613C17.3645 29.3035 19.7998 29.2184 21.4594 27.6713Z" fill="url(#paint0_linear_6_97)"/>
<path d="M43.4126 27.6733C45.0722 26.1262 45.3278 23.7029 43.9834 22.2607C42.639 20.8185 40.2037 20.9036 38.5441 22.4507C36.8845 23.9978 36.6289 26.4211 37.9733 27.8633C39.3177 29.3054 41.7529 29.2204 43.4126 27.6733Z" fill="url(#paint1_linear_6_97)"/>
<path d="M4.03867 8.73711C4.03867 7.77935 3.26225 7.00293 2.30449 7.00293C1.34673 7.00293 0.570312 7.77935 0.570312 8.73711C0.570312 9.69487 1.34673 10.4713 2.30449 10.4713C3.26225 10.4713 4.03867 9.69487 4.03867 8.73711Z" fill="url(#paint2_linear_6_97)"/>
<path d="M35.2137 24.698C35.8302 21.6511 38.7085 19.2298 41.8021 19.2298C44.7809 19.2298 46.928 21.4754 46.869 24.3628C50.0906 24.4471 50.9874 20.2048 50.9874 20.2048C51.2586 19.0186 51.6638 16.706 52.003 14.4361C52.1142 13.7353 52.0288 13.0173 51.7562 12.3622C50.9141 10.3963 49.8964 8.51048 48.7155 6.7275C47.5983 5.06086 45.7244 4.07367 43.5855 4.03812C42.3099 4.01781 41.0576 4.00562 40.1121 4.00562L40.104 3.9975C39.9821 1.95812 38.4952 0.396093 36.4081 0.209218C35.0502 0.0883591 29.6715 0 27.0898 0C26.064 0 24.5923 0.0142185 23.1034 0.0385935V0.0325H23.0912H5.18984C4.962 0.0323664 4.73637 0.0771438 4.52585 0.164273C4.31533 0.251402 4.12404 0.379173 3.96294 0.54028C3.80183 0.701387 3.67406 0.892671 3.58693 1.10319C3.4998 1.31372 3.45502 1.53935 3.45516 1.76719V1.77531C3.45516 2.23323 3.63706 2.67238 3.96085 2.99618C4.28465 3.31997 4.7238 3.50187 5.18172 3.50187H8.79023C9.22474 3.53391 9.63108 3.72904 9.92775 4.04812C10.2244 4.3672 10.3895 4.78665 10.3898 5.22234V5.23148C10.3905 5.45954 10.3462 5.68549 10.2594 5.89641C10.1727 6.10733 10.0452 6.29907 9.88428 6.46066C9.72335 6.62225 9.53213 6.75052 9.32157 6.83814C9.11101 6.92575 8.88524 6.97098 8.65719 6.97125H6.80672C6.34692 6.97125 5.90595 7.1539 5.58083 7.47903C5.2557 7.80415 5.07305 8.24512 5.07305 8.70492C5.07291 8.93267 5.11766 9.15822 5.20472 9.36868C5.29179 9.57913 5.41947 9.77037 5.58047 9.93147C5.74147 10.0926 5.93263 10.2204 6.14304 10.3075C6.35344 10.3947 6.57896 10.4396 6.80672 10.4396H8.65719C9.11725 10.4396 9.55848 10.6224 9.88379 10.9477C10.2091 11.273 10.3919 11.7142 10.3919 12.1743C10.3919 12.6344 10.2091 13.0756 9.88379 13.4009C9.55848 13.7262 9.11725 13.909 8.65719 13.909H1.73469C1.2748 13.909 0.833725 14.0916 0.508437 14.4167C0.183149 14.7418 0.000269257 15.1828 0 15.6427C0 16.1027 0.182761 16.5439 0.508078 16.8693C0.833395 17.1946 1.27462 17.3773 1.73469 17.3773H8.65719C9.11725 17.3773 9.55848 17.5601 9.88379 17.8854C10.2091 18.2107 10.3919 18.652 10.3919 19.112C10.3913 19.5717 10.2083 20.0124 9.88308 20.3373C9.55782 20.6622 9.1169 20.8447 8.65719 20.8447H6.51625C6.05645 20.8447 5.61548 21.0273 5.29036 21.3525C4.96523 21.6776 4.78258 22.1186 4.78258 22.5784C4.78258 23.0382 4.9652 23.4793 5.2903 23.8046C5.61539 24.1299 6.05636 24.3128 6.51625 24.313L13.3473 24.308L13.9151 22.8932C15.078 20.7482 17.3916 19.2288 19.8412 19.2288C22.9359 19.2288 25.1337 21.6521 24.8919 24.701H35.2127L35.2137 24.698ZM18.008 7.77867H15.6802C15.678 7.77885 15.676 7.77974 15.6743 7.7812C15.6727 7.78267 15.6715 7.78463 15.6711 7.78679L15.4568 9.31023C15.4565 9.31145 15.4565 9.31273 15.4567 9.31397C15.457 9.3152 15.4575 9.31636 15.4583 9.31734C15.4591 9.31833 15.4601 9.31912 15.4613 9.31964C15.4624 9.32017 15.4637 9.32043 15.4649 9.32039H17.1976C17.2826 9.31797 17.3671 9.33456 17.445 9.36896C17.5228 9.40335 17.5919 9.45467 17.6474 9.51919C17.7029 9.5837 17.7432 9.65978 17.7656 9.74188C17.7879 9.82398 17.7916 9.91003 17.7765 9.99375C17.7468 10.1778 17.6539 10.3457 17.5137 10.4686C17.3736 10.5915 17.195 10.6617 17.0087 10.6671H15.274C15.2719 10.6671 15.2698 10.6677 15.2681 10.669C15.2665 10.6703 15.2653 10.6722 15.2648 10.6742L14.9541 12.8873C14.9244 13.0713 14.8315 13.2392 14.6913 13.3621C14.5512 13.485 14.3726 13.5552 14.1862 13.5606C14.1012 13.5631 14.0167 13.5465 13.939 13.5121C13.8612 13.4777 13.7921 13.4263 13.7367 13.3618C13.6813 13.2973 13.641 13.2212 13.6188 13.1391C13.5966 13.0569 13.593 12.9709 13.6084 12.8873L14.4148 7.14695C14.4467 6.9526 14.5452 6.77541 14.6935 6.64571C14.8417 6.51602 15.0304 6.44189 15.2273 6.43601H18.1959C18.281 6.43356 18.3654 6.45014 18.4432 6.48454C18.521 6.51894 18.5901 6.57029 18.6455 6.63483C18.7009 6.69937 18.7412 6.77548 18.7634 6.85758C18.7856 6.93968 18.7891 7.02571 18.7738 7.10937C18.7437 7.29248 18.6508 7.45941 18.5111 7.58153C18.3714 7.70365 18.1935 7.77335 18.008 7.77867ZM24.2298 6.89304C24.4716 7.1076 24.6418 7.3912 24.7173 7.70554C24.8017 8.06165 24.8155 8.43085 24.7579 8.79226C24.6873 9.35463 24.4571 9.88503 24.0947 10.3208C23.8734 10.5825 23.5922 10.787 23.2751 10.9169C23.2736 10.9185 23.2728 10.9205 23.2728 10.9225C23.2728 10.9246 23.2736 10.9266 23.2751 10.9281L23.8519 12.5927C24.0073 13.0396 23.6082 13.5606 23.1116 13.5606H23.0791C22.9586 13.5642 22.8401 13.5293 22.7407 13.461C22.6414 13.3927 22.5664 13.2945 22.5266 13.1808L21.8288 11.1495C21.8278 11.148 21.8265 11.1467 21.8249 11.1459C21.8233 11.145 21.8215 11.1445 21.8197 11.1445H20.3369C20.3348 11.1446 20.3328 11.1453 20.3312 11.1466C20.3296 11.1478 20.3283 11.1496 20.3277 11.1516L20.084 12.8862C20.0543 13.0703 19.9614 13.2382 19.8212 13.3611C19.6811 13.484 19.5025 13.5542 19.3162 13.5596C19.2312 13.5621 19.1467 13.5455 19.0689 13.5111C18.9911 13.4767 18.922 13.4253 18.8666 13.3608C18.8112 13.2962 18.7709 13.2201 18.7487 13.138C18.7265 13.0559 18.723 12.9699 18.7383 12.8862L19.5447 7.14593C19.5766 6.95159 19.6752 6.77439 19.8234 6.6447C19.9716 6.515 20.1603 6.44087 20.3572 6.435H22.6525C22.6525 6.435 23.66 6.40351 24.2298 6.89304ZM30.5469 7.06164C30.5193 7.23353 30.4326 7.39039 30.3017 7.50516C30.1708 7.61993 30.0039 7.68542 29.8299 7.69031H27.1598C27.1578 7.69042 27.1558 7.69116 27.1542 7.69243C27.1525 7.6937 27.1513 7.69544 27.1507 7.69742L26.9384 9.20461C26.9381 9.20583 26.9381 9.20711 26.9384 9.20834C26.9386 9.20958 26.9392 9.21073 26.94 9.21172C26.9407 9.2127 26.9417 9.21349 26.9429 9.21402C26.944 9.21455 26.9453 9.2148 26.9466 9.21476H29.0205C29.0999 9.21241 29.1788 9.22784 29.2515 9.25992C29.3242 9.29201 29.3888 9.33993 29.4406 9.40019C29.4924 9.46045 29.5301 9.53152 29.5509 9.60821C29.5716 9.6849 29.575 9.76527 29.5608 9.84343C29.5332 10.0153 29.4464 10.1722 29.3155 10.287C29.1846 10.4017 29.0178 10.4672 28.8437 10.4721H26.7688C26.7668 10.4722 26.7648 10.473 26.7631 10.4742C26.7615 10.4755 26.7603 10.4772 26.7597 10.4792L26.5048 12.2931C26.5047 12.2956 26.5057 12.2981 26.5074 12.3C26.5091 12.3018 26.5114 12.303 26.5139 12.3033H29.1819C29.2614 12.3009 29.3403 12.3164 29.413 12.3484C29.4857 12.3805 29.5503 12.4284 29.6021 12.4887C29.6539 12.549 29.6915 12.62 29.7123 12.6967C29.7331 12.7734 29.7365 12.8538 29.7223 12.9319C29.6947 13.1038 29.6079 13.2607 29.477 13.3755C29.3461 13.4902 29.1793 13.5557 29.0052 13.5606H25.6943C25.605 13.5619 25.5164 13.5435 25.435 13.5067C25.3536 13.4699 25.2812 13.4157 25.2231 13.3479C25.1649 13.28 25.1224 13.2003 25.0985 13.1142C25.0747 13.0281 25.07 12.9378 25.0849 12.8497L25.8862 7.15C25.9182 6.95565 26.0167 6.77846 26.1649 6.64876C26.3132 6.51906 26.5019 6.44493 26.6987 6.43906H30.0087C30.0873 6.43719 30.1654 6.45275 30.2373 6.48462C30.3092 6.51649 30.3732 6.56387 30.4247 6.62338C30.4761 6.68289 30.5138 6.75304 30.5349 6.82881C30.556 6.90458 30.5602 6.98409 30.5469 7.06164ZM36.0933 7.06164C36.0657 7.23353 35.9789 7.39039 35.848 7.50516C35.7171 7.61993 35.5503 7.68542 35.3762 7.69031H32.7062C32.7041 7.69042 32.7021 7.69116 32.7005 7.69243C32.6988 7.6937 32.6976 7.69544 32.697 7.69742L32.4858 9.20461C32.4855 9.20583 32.4854 9.20711 32.4857 9.20834C32.486 9.20958 32.4865 9.21073 32.4873 9.21172C32.4881 9.2127 32.4891 9.21349 32.4902 9.21402C32.4914 9.21455 32.4926 9.2148 32.4939 9.21476H34.5678C34.6472 9.21241 34.7262 9.22784 34.7989 9.25992C34.8716 9.29201 34.9362 9.33993 34.9879 9.40019C35.0397 9.46045 35.0774 9.53152 35.0982 9.60821C35.119 9.6849 35.1224 9.76527 35.1081 9.84343C35.0805 10.0153 34.9938 10.1722 34.8629 10.287C34.732 10.4017 34.5651 10.4672 34.3911 10.4721H32.3151C32.3131 10.4722 32.3111 10.473 32.3095 10.4742C32.3078 10.4755 32.3066 10.4772 32.306 10.4792L32.0511 12.2931C32.0511 12.2956 32.052 12.2981 32.0537 12.3C32.0554 12.3018 32.0577 12.303 32.0602 12.3033H34.7283C34.8077 12.3009 34.8866 12.3164 34.9593 12.3484C35.032 12.3805 35.0966 12.4284 35.1484 12.4887C35.2002 12.549 35.2379 12.62 35.2587 12.6967C35.2795 12.7734 35.2828 12.8538 35.2686 12.9319C35.241 13.1038 35.1542 13.2607 35.0233 13.3755C34.8924 13.4902 34.7256 13.5557 34.5516 13.5606H31.2406C31.1513 13.5619 31.0628 13.5435 30.9813 13.5067C30.8999 13.4699 30.8276 13.4157 30.7694 13.3479C30.7113 13.28 30.6688 13.2003 30.6449 13.1142C30.621 13.0281 30.6163 12.9378 30.6312 12.8497L31.4326 7.15C31.4645 6.95565 31.563 6.77846 31.7113 6.64876C31.8595 6.51906 32.0482 6.44493 32.2451 6.43906H35.555C35.6336 6.43719 35.7117 6.45275 35.7836 6.48462C35.8556 6.51649 35.9195 6.56387 35.971 6.62338C36.0224 6.68289 36.0601 6.75304 36.0812 6.82881C36.1024 6.90458 36.1065 6.98409 36.0933 7.06164ZM39.9526 6.41062C40.8596 6.41062 42.0337 6.42281 43.2118 6.44211C44.6398 6.46547 45.889 7.12156 46.6385 8.24078C47.4391 9.44774 48.1587 10.7065 48.7926 12.0087C49.1278 12.6912 48.5113 13.5799 47.7039 13.5799H39.0457L39.9526 6.41062Z" fill="url(#paint3_linear_6_97)"/>
<path d="M22.1125 9.88828H20.5078L20.8125 7.69046H22.4162C22.4162 7.69046 23.5933 7.61429 23.4003 8.78937C23.4054 8.78937 23.2703 9.88828 22.1125 9.88828Z" fill="url(#paint4_linear_6_97)"/>
<defs>
<linearGradient id="paint0_linear_6_97" x1="16.591" y1="22.4487" x2="21.4594" y2="27.6713" gradientUnits="userSpaceOnUse">
<stop stop-color="#00B59C"/>
<stop offset="1" stop-color="#9CFFAC"/>
</linearGradient>
<linearGradient id="paint1_linear_6_97" x1="38.5441" y1="22.4507" x2="43.4126" y2="27.6733" gradientUnits="userSpaceOnUse">
<stop stop-color="#00B59C"/>
<stop offset="1" stop-color="#9CFFAC"/>
</linearGradient>
<linearGradient id="paint2_linear_6_97" x1="2.30449" y1="7.00293" x2="2.30449" y2="10.4713" gradientUnits="userSpaceOnUse">
<stop stop-color="#00B59C"/>
<stop offset="1" stop-color="#9CFFAC"/>
</linearGradient>
<linearGradient id="paint3_linear_6_97" x1="26.0252" y1="0" x2="26.0252" y2="24.701" gradientUnits="userSpaceOnUse">
<stop stop-color="#00B59C"/>
<stop offset="1" stop-color="#9CFFAC"/>
</linearGradient>
<linearGradient id="paint4_linear_6_97" x1="21.9647" y1="7.68945" x2="21.9647" y2="9.88828" gradientUnits="userSpaceOnUse">
<stop stop-color="#00B59C"/>
<stop offset="1" stop-color="#9CFFAC"/>
</linearGradient>
</defs>
</svg>
