<svg width="20" height="20" viewBox="0 0 20 20" fill="none" xmlns="http://www.w3.org/2000/svg">
<path fill-rule="evenodd" clip-rule="evenodd" d="M9.48581 1.00855C9.78673 0.774494 10.2081 0.774494 10.509 1.00855L18.009 6.84188C18.212 6.99976 18.3307 7.24252 18.3307 7.49967V16.6663C18.3307 17.3294 18.0673 17.9653 17.5985 18.4341C17.1296 18.9029 16.4938 19.1663 15.8307 19.1663H4.16406C3.50102 19.1663 2.86514 18.9029 2.3963 18.4341C1.92745 17.9653 1.66406 17.3294 1.66406 16.6663V7.49967C1.66406 7.24252 1.78279 6.99976 1.98578 6.84188L9.48581 1.00855ZM3.33073 7.90724V16.6663C3.33073 16.8873 3.41853 17.0993 3.5748 17.2556C3.73109 17.4118 3.94305 17.4997 4.16406 17.4997H15.8307C16.0517 17.4997 16.2637 17.4118 16.42 17.2556C16.5762 17.0993 16.6641 16.8873 16.6641 16.6663V7.90724L9.9974 2.72206L3.33073 7.90724Z" fill="#3BB77E"/>
<path fill-rule="evenodd" clip-rule="evenodd" d="M6.66406 10.0003C6.66406 9.54008 7.03716 9.16699 7.4974 9.16699H12.4974C12.9576 9.16699 13.3307 9.54008 13.3307 10.0003V18.3337C13.3307 18.7939 12.9576 19.167 12.4974 19.167C12.0371 19.167 11.6641 18.7939 11.6641 18.3337V10.8337H8.33073V18.3337C8.33073 18.7939 7.95763 19.167 7.4974 19.167C7.03716 19.167 6.66406 18.7939 6.66406 18.3337V10.0003Z" fill="#3BB77E"/>
</svg>
