<svg width="17" height="20" viewBox="0 0 17 20" fill="none" xmlns="http://www.w3.org/2000/svg">
<path d="M11.8257 3.19603C10.8734 2.38889 9.89241 1.55158 8.89955 0.561908L8.33364 0L7.77809 0.562698C5.99079 2.35476 5.14634 5.10635 4.77967 6.75715C4.49902 6.32215 4.29076 5.84452 4.16301 5.34286L3.82729 4.04682L2.8511 4.96429C1.14079 6.56984 0.000311184 8.1627 0.000311184 10.7135C-0.0156602 12.5534 0.583578 14.3459 1.70286 15.8062C2.82214 17.2665 4.39727 18.3111 6.17809 18.7739C6.71465 18.9043 7.2623 18.984 7.81381 19.0119C7.98624 19.0338 8.15984 19.0451 8.33364 19.046C8.42488 19.046 8.51384 19.0381 8.60269 19.0325C10.7647 18.9675 12.8163 18.0625 14.3219 16.5096C15.8275 14.9566 16.6688 12.878 16.667 10.7151C16.667 7.30715 14.4234 5.40238 11.8257 3.19603ZM8.49241 17.4453C8.41298 17.4453 8.33364 17.4532 8.24951 17.4524C7.53517 17.4305 6.85728 17.1319 6.35908 16.6195C5.86089 16.1071 5.5814 15.421 5.57967 14.7063C5.57967 13.7 6.11936 13.1984 7.34079 12.1587C7.64872 11.8968 7.98364 11.6119 8.33603 11.2858C8.64479 11.5659 8.94479 11.8199 9.22174 12.0556C10.4487 13.0968 11.0892 13.6881 11.0892 14.7039C11.0878 15.4059 10.8182 16.0809 10.3355 16.5905C9.8526 17.1001 9.19326 17.4059 8.49241 17.4453ZM12.4765 16.0397L12.4606 16.0508C12.6031 15.6168 12.6759 15.1631 12.6765 14.7063C12.6765 12.9087 11.4972 11.9072 10.2495 10.8477C9.80745 10.473 9.35107 10.0858 8.89555 9.63014L8.33364 9.06909L7.77253 9.63014C7.25824 10.1437 6.75507 10.5722 6.31142 10.95C5.06698 12.0087 3.99158 12.9239 3.99158 14.7063C3.99327 15.1827 4.07372 15.6555 4.22967 16.1056C3.40353 15.4712 2.73521 14.6544 2.27689 13.7191C1.81858 12.7838 1.58267 11.7551 1.58762 10.7135C1.57456 9.3208 2.1136 7.97962 3.08682 6.98334C3.25445 7.32343 3.45319 7.6473 3.68047 7.95079C3.84647 8.17479 4.07439 8.34533 4.33613 8.44137C4.59787 8.5374 4.882 8.55475 5.15348 8.49127C5.42966 8.42978 5.68229 8.29005 5.88116 8.08879C6.08003 7.88753 6.21673 7.63324 6.27491 7.35635C6.60723 5.53226 7.32596 3.80037 8.38288 2.27698C9.22012 3.07063 10.0495 3.77301 10.7979 4.40873C13.2836 6.51984 15.0836 8.04524 15.0836 10.7182C15.0855 11.7458 14.8515 12.7599 14.3993 13.6826C13.9471 14.6053 13.289 15.4117 12.4757 16.0397H12.4765Z" fill="#3BB77E"/>
</svg>
