<svg width="25" height="25" viewBox="0 0 25 25" fill="none" xmlns="http://www.w3.org/2000/svg">
<path d="M23.9765 7.06849C23.9202 5.79103 23.7136 4.91279 23.4177 4.15179C23.1124 3.34399 22.6427 2.62078 22.0274 2.01957C21.4262 1.409 20.6982 0.934565 19.8998 0.634051C19.1344 0.338124 18.2607 0.131544 16.9832 0.0752201C15.6962 0.0141267 15.2877 0 12.0235 0C8.7593 0 8.35072 0.0141267 7.06849 0.0704501C5.79103 0.126773 4.91279 0.333537 4.15197 0.629281C3.34399 0.934565 2.62078 1.40423 2.01957 2.01957C1.409 2.62078 0.934748 3.34876 0.634051 4.1472C0.338124 4.91279 0.131544 5.78626 0.0752201 7.06372C0.0141267 8.35072 0 8.7593 0 12.0235C0 15.2877 0.0141267 15.6962 0.0704501 16.9785C0.126773 18.2559 0.333537 19.1342 0.629464 19.8952C0.934748 20.703 1.409 21.4262 2.01957 22.0274C2.62078 22.638 3.34876 23.1124 4.1472 23.4129C4.91279 23.7088 5.78626 23.9154 7.06391 23.9717C8.34595 24.0283 8.75471 24.0422 12.0189 24.0422C15.2831 24.0422 15.6917 24.0283 16.9739 23.9717C18.2513 23.9154 19.1296 23.7088 19.8904 23.4129C21.5062 22.7882 22.7836 21.5108 23.4083 19.8952C23.7041 19.1296 23.9108 18.2559 23.9672 16.9785C24.0235 15.6962 24.0376 15.2877 24.0376 12.0235C24.0376 8.7593 24.0328 8.35072 23.9765 7.06849ZM21.8115 16.8845C21.7597 18.0587 21.5625 18.6928 21.3981 19.1155C20.9941 20.1629 20.1629 20.9941 19.1155 21.3981C18.6928 21.5625 18.0541 21.7597 16.8845 21.8113C15.6164 21.8678 15.2361 21.8817 12.0283 21.8817C8.82039 21.8817 8.4353 21.8678 7.17178 21.8113C5.99761 21.7597 5.36356 21.5625 4.94086 21.3981C4.41964 21.2055 3.94521 20.9002 3.56011 20.501C3.1609 20.1111 2.85561 19.6415 2.66298 19.1202C2.49859 18.6975 2.30137 18.0587 2.24982 16.8893C2.19331 15.6212 2.17937 15.2407 2.17937 12.0328C2.17937 8.82498 2.19331 8.43989 2.24982 7.17655C2.30137 6.00239 2.49859 5.36833 2.66298 4.94563C2.85561 4.42423 3.1609 3.94998 3.56488 3.5647C3.95456 3.16548 4.42423 2.8602 4.94563 2.66775C5.36833 2.50336 6.00715 2.30614 7.17655 2.2544C8.44466 2.19808 8.82516 2.18395 12.0328 2.18395C15.2455 2.18395 15.6258 2.19808 16.8893 2.2544C18.0635 2.30614 18.6975 2.50336 19.1202 2.66775C19.6415 2.8602 20.1159 3.16548 20.501 3.5647C20.9002 3.95456 21.2055 4.42423 21.3981 4.94563C21.5625 5.36833 21.7597 6.00697 21.8115 7.17655C21.8678 8.44466 21.8819 8.82498 21.8819 12.0328C21.8819 15.2407 21.8678 15.6164 21.8115 16.8845Z" fill="white"/>
<path d="M12.0199 5.84766C8.6102 5.84766 5.84375 8.61392 5.84375 12.0238C5.84375 15.4336 8.6102 18.1999 12.0199 18.1999C15.4297 18.1999 18.196 15.4336 18.196 12.0238C18.196 8.61392 15.4297 5.84766 12.0199 5.84766ZM12.0199 16.0301C9.80785 16.0301 8.01358 14.236 8.01358 12.0238C8.01358 9.81157 9.80785 8.01748 12.0199 8.01748C14.2321 8.01748 16.0262 9.81157 16.0262 12.0238C16.0262 14.236 14.2321 16.0301 12.0199 16.0301Z" fill="white"/>
<path d="M19.8839 5.60297C19.8839 6.39921 19.2383 7.04482 18.4418 7.04482C17.6456 7.04482 17 6.39921 17 5.60297C17 4.80656 17.6456 4.16113 18.4418 4.16113C19.2383 4.16113 19.8839 4.80656 19.8839 5.60297Z" fill="white"/>
</svg>
