<svg width="20" height="20" viewBox="0 0 20 20" fill="none" xmlns="http://www.w3.org/2000/svg">
<path d="M19.1971 19.2003V12.1683C19.1971 8.71227 18.4531 6.07227 14.4211 6.07227C12.4771 6.07227 11.1811 7.12827 10.6531 8.13627H10.6051V6.38427H6.78906V19.2003H10.7731V12.8403C10.7731 11.1603 11.0851 9.55227 13.1491 9.55227C15.1891 9.55227 15.2131 11.4483 15.2131 12.9363V19.1763H19.1971V19.2003Z" fill="white"/>
<path d="M0.3125 6.38379H4.2965V19.1998H0.3125V6.38379Z" fill="white"/>
<path d="M2.304 0C1.032 0 0 1.032 0 2.304C0 3.576 1.032 4.632 2.304 4.632C3.576 4.632 4.608 3.576 4.608 2.304C4.608 1.032 3.576 0 2.304 0Z" fill="white"/>
</svg>
