<svg width="20" height="20" viewBox="0 0 20 20" fill="none" xmlns="http://www.w3.org/2000/svg">
<path fill-rule="evenodd" clip-rule="evenodd" d="M18.0017 4.33689C18.209 4.49448 18.3307 4.73992 18.3307 5.00033V15.0003C18.3307 15.2531 18.216 15.4922 18.0188 15.6504C17.8217 15.8085 17.5634 15.8687 17.3166 15.8138L2.31662 12.4805C1.93534 12.3958 1.66406 12.0576 1.66406 11.667V9.167C1.66406 8.79266 1.91368 8.46426 2.27436 8.36407L17.2744 4.1974C17.5253 4.1277 17.7943 4.17931 18.0017 4.33689ZM3.33073 9.8004V10.9985L16.6641 13.9615V6.0967L3.33073 9.8004Z" fill="#3BB77E"/>
<path fill-rule="evenodd" clip-rule="evenodd" d="M5.05146 11.8632C5.49512 11.9856 5.75557 12.4445 5.63318 12.8882C5.57473 13.1 5.55859 13.3213 5.58567 13.5394C5.61275 13.7575 5.68253 13.9682 5.79101 14.1593C5.8995 14.3505 6.04457 14.5184 6.21794 14.6534C6.39131 14.7885 6.58959 14.8881 6.80146 14.9466C7.01333 15.005 7.23463 15.0211 7.45274 14.9941C7.67084 14.967 7.88148 14.8972 8.07262 14.7887C8.26376 14.6802 8.43166 14.5352 8.56673 14.3618C8.70181 14.1884 8.80141 13.9901 8.85986 13.7783C8.98225 13.3346 9.44113 13.0742 9.88479 13.1966C10.3285 13.3189 10.5889 13.7778 10.4665 14.2215C10.3499 14.6443 10.1511 15.0401 9.88148 15.3861C9.61189 15.7321 9.27678 16.0217 8.89529 16.2382C8.51381 16.4547 8.09341 16.594 7.6581 16.648C7.22279 16.7021 6.7811 16.6699 6.35824 16.5532C5.93539 16.4366 5.53965 16.2378 5.19362 15.9682C4.84759 15.6986 4.55805 15.3635 4.34153 14.982C4.12501 14.6005 3.98575 14.1801 3.9317 13.7448C3.87765 13.3095 3.90987 12.8678 4.02652 12.4449C4.14892 12.0013 4.60779 11.7408 5.05146 11.8632Z" fill="#3BB77E"/>
</svg>
