<svg width="52" height="52" viewBox="0 0 52 52" fill="none" xmlns="http://www.w3.org/2000/svg">
<path d="M51.1689 20.0519L50.068 9.04115C50.0329 8.69127 49.878 8.36413 49.6293 8.11551L43.8841 2.37032C43.6355 2.12159 43.3085 1.96661 42.9585 1.93167L31.9476 0.830633C29.3609 0.571547 26.8228 1.47789 24.9843 3.31627L2.23102 26.0694C0.792289 27.5081 0 29.421 0 31.4556C0 33.4902 0.792289 35.4031 2.23102 36.8417L15.1578 49.7685C16.5965 51.2073 18.5094 51.9995 20.544 51.9995C22.5786 51.9995 24.4915 51.2073 25.9301 49.7685L48.6834 27.0154C50.5218 25.1769 51.4277 22.6388 51.1689 20.0519ZM41.3705 16.3743C39.784 17.9608 37.2117 17.9608 35.6252 16.3743C34.0387 14.7878 34.0387 12.2155 35.6252 10.629C37.2117 9.04247 39.784 9.04247 41.3705 10.629C42.957 12.2155 42.957 14.7878 41.3705 16.3743Z" fill="url(#paint0_linear_6_24)"/>
<path d="M31.5498 22.4375L32.3113 21.676C32.9063 21.0811 32.9063 20.1165 32.3113 19.5216C31.7163 18.9266 30.7518 18.9266 30.1569 19.5216L29.2703 20.4081C29.1313 20.3239 28.9889 20.2409 28.8395 20.1607C27.0125 19.1796 24.7635 19.3308 22.9701 20.5554C21.33 21.6753 20.4418 23.4533 20.6523 25.1956C20.7582 26.0713 21.0098 27.0284 21.4602 28.2183L15.9891 33.6893C15.3877 32.9556 15.1186 32.3104 14.8587 31.0671C14.6866 30.2435 13.8792 29.7158 13.0558 29.8877C12.2322 30.0598 11.7041 30.867 11.8763 31.6906C12.2891 33.665 12.8647 34.7444 13.8276 35.8508L12.9211 36.7573C12.3261 37.3523 12.3261 38.3168 12.9211 38.9118C13.516 39.5067 14.4806 39.5067 15.0755 38.9118L16.0779 37.9095C17.061 38.5325 18.1695 38.8826 19.3473 38.9324C19.4423 38.9365 19.5374 38.9384 19.6323 38.9384C21.0531 38.9384 22.4591 38.4907 23.6204 37.6638C24.7696 36.8453 25.6088 35.689 25.9832 34.4076C26.4014 32.9769 26.2481 31.437 25.5399 29.9547C25.3797 29.6192 25.218 29.2748 25.0599 28.9272L29.3501 24.637C29.7581 25.3511 29.7612 25.9195 29.7607 25.9597C29.7078 26.7956 30.3402 27.5181 31.1767 27.5756C32.0161 27.6331 32.7433 26.9994 32.8009 26.16C32.8613 25.2844 32.5927 23.8364 31.5498 22.4375ZM22.7907 31.2681C23.8643 33.5155 22.3444 34.832 21.853 35.182C20.942 35.8309 19.5991 36.139 18.3367 35.6506L22.7677 31.2197C22.7755 31.2359 22.7829 31.2517 22.7907 31.2681ZM23.6773 24.83C23.6049 24.2306 24.0018 23.5404 24.6883 23.0716C25.2657 22.6773 26.1398 22.4016 27.0012 22.6773L23.874 25.8045C23.7828 25.4619 23.714 25.1341 23.6773 24.83ZM38.8596 13.1432C38.2647 12.5482 38.2647 11.5837 38.8596 10.9887L49.402 0.446215C49.997 -0.148738 50.9615 -0.148738 51.5565 0.446215C52.1514 1.04117 52.1514 2.00571 51.5565 2.60066L41.0142 13.1432C40.4192 13.738 39.4546 13.738 38.8596 13.1432Z" fill="url(#paint1_linear_6_24)"/>
<defs>
<linearGradient id="paint0_linear_6_24" x1="8.69446" y1="43.3051" x2="46.7566" y2="5.24291" gradientUnits="userSpaceOnUse">
<stop stop-color="#00B59C"/>
<stop offset="1" stop-color="#9CFFAC"/>
</linearGradient>
<linearGradient id="paint1_linear_6_24" x1="13.0056" y1="38.9962" x2="51.5561" y2="0.445713" gradientUnits="userSpaceOnUse">
<stop stop-color="#C3FFE8"/>
<stop offset="0.9973" stop-color="#F0FFF4"/>
</linearGradient>
</defs>
</svg>
