<svg width="20" height="20" viewBox="0 0 20 20" fill="none" xmlns="http://www.w3.org/2000/svg">
<path fill-rule="evenodd" clip-rule="evenodd" d="M16.4252 3.57709C16.7506 3.90252 16.7506 4.43016 16.4252 4.7556L4.75853 16.4223C4.43309 16.7477 3.90545 16.7477 3.58002 16.4223C3.25458 16.0968 3.25458 15.5692 3.58002 15.2438L15.2467 3.57709C15.5721 3.25165 16.0998 3.25165 16.4252 3.57709Z" fill="#3BB77E"/>
<path fill-rule="evenodd" clip-rule="evenodd" d="M5.41667 4.16667C4.72631 4.16667 4.16667 4.72631 4.16667 5.41667C4.16667 6.10702 4.72631 6.66667 5.41667 6.66667C6.10702 6.66667 6.66667 6.10702 6.66667 5.41667C6.66667 4.72631 6.10702 4.16667 5.41667 4.16667ZM2.5 5.41667C2.5 3.80584 3.80584 2.5 5.41667 2.5C7.0275 2.5 8.33333 3.80584 8.33333 5.41667C8.33333 7.0275 7.0275 8.33333 5.41667 8.33333C3.80584 8.33333 2.5 7.0275 2.5 5.41667Z" fill="#3BB77E"/>
<path fill-rule="evenodd" clip-rule="evenodd" d="M14.5807 13.3337C13.8904 13.3337 13.3307 13.8933 13.3307 14.5837C13.3307 15.274 13.8904 15.8337 14.5807 15.8337C15.2711 15.8337 15.8307 15.274 15.8307 14.5837C15.8307 13.8933 15.2711 13.3337 14.5807 13.3337ZM11.6641 14.5837C11.6641 12.9728 12.9699 11.667 14.5807 11.667C16.1916 11.667 17.4974 12.9728 17.4974 14.5837C17.4974 16.1945 16.1916 17.5003 14.5807 17.5003C12.9699 17.5003 11.6641 16.1945 11.6641 14.5837Z" fill="#3BB77E"/>
</svg>
