<svg width="18" height="18" viewBox="0 0 18 18" fill="none" xmlns="http://www.w3.org/2000/svg">
<g clip-path="url(#clip0_6_133)">
<path d="M14.9201 17.1975C14.8526 17.1975 14.7851 17.1975 14.7101 17.19C12.2876 16.9275 9.93258 16.0875 7.90008 14.7675C6.01008 13.5675 4.37508 11.9325 3.17508 10.0425C1.85508 8.0025 1.01508 5.64 0.760084 3.2175C0.730084 2.895 0.767584 2.5875 0.865084 2.2875C0.962584 1.9875 1.12758 1.7175 1.33758 1.485C1.54758 1.2525 1.80258 1.0725 2.08758 0.945C2.38008 0.8175 2.68758 0.75 3.00258 0.75H5.25258C5.77758 0.75 6.31758 0.9375 6.73758 1.2975C7.15008 1.65 7.42008 2.145 7.49508 2.685C7.58508 3.3525 7.75008 4.0125 7.98258 4.635C8.13258 5.04 8.17008 5.475 8.07258 5.895C7.98258 6.315 7.77258 6.705 7.47258 7.005L6.93258 7.545C7.81758 8.925 8.98758 10.1025 10.3751 10.9875L10.9151 10.4475C11.2226 10.14 11.6126 9.93 12.0326 9.8475C12.4526 9.7575 12.8876 9.7875 13.2926 9.9375C13.9151 10.17 14.5751 10.335 15.2351 10.425C15.7901 10.5 16.2851 10.7775 16.6451 11.1975C16.9976 11.6175 17.1926 12.15 17.1776 12.6975V14.94C17.1776 15.255 17.1176 15.555 16.9901 15.8475C16.8626 16.1325 16.6751 16.395 16.4501 16.605C16.2176 16.815 15.9476 16.98 15.6476 17.0775C15.4076 17.16 15.1676 17.1975 14.9201 17.1975ZM5.26758 2.25H5.26008H3.00258C2.89758 2.25 2.80008 2.2725 2.70258 2.3175C2.60508 2.355 2.51508 2.415 2.44758 2.49C2.37258 2.565 2.32008 2.655 2.29008 2.76C2.26008 2.8575 2.24508 2.9625 2.25258 3.0675C2.48508 5.25 3.24258 7.38 4.43508 9.2325C5.52258 10.9425 7.00008 12.42 8.71008 13.5075C10.5551 14.7075 12.6851 15.4575 14.8601 15.6975C14.9501 15.705 15.0551 15.69 15.1526 15.66C15.2501 15.63 15.3401 15.57 15.4226 15.5025C15.5051 15.435 15.5651 15.345 15.6026 15.2475C15.6476 15.15 15.6626 15.045 15.6626 14.94V12.69C15.6626 12.6825 15.6626 12.675 15.6626 12.675C15.6701 12.4875 15.6026 12.315 15.4826 12.1725C15.3626 12.03 15.1976 11.94 15.0176 11.9175C14.2526 11.82 13.4876 11.625 12.7526 11.355C12.6176 11.3025 12.4676 11.295 12.3326 11.325C12.1901 11.355 12.0626 11.4225 11.9576 11.5275L11.0126 12.48C10.7726 12.72 10.4051 12.765 10.1126 12.6C8.11758 11.4675 6.46758 9.81 5.32758 7.8225C5.17008 7.5075 5.21508 7.14 5.45508 6.9L6.40758 5.9475C6.50508 5.85 6.57258 5.7225 6.60258 5.58C6.63258 5.4375 6.62508 5.295 6.57258 5.16C6.29508 4.425 6.10758 3.66 6.00258 2.8875C5.98008 2.715 5.89008 2.55 5.75508 2.43C5.62008 2.3175 5.44758 2.25 5.26758 2.25Z" fill="#3BB77E"/>
</g>
<defs>
<clipPath id="clip0_6_133">
<rect width="18" height="18" fill="white"/>
</clipPath>
</defs>
</svg>
