<svg width="45" height="40" viewBox="0 0 45 40" fill="none" xmlns="http://www.w3.org/2000/svg">
<path d="M22.8097 18.8602C21.3509 18.5489 21.1836 18.4253 21.1836 17.6562C21.1836 16.6366 22.8689 16.133 23.5564 16.9536C23.9928 17.4709 24.8207 17.5762 25.4026 17.187C25.9845 16.7991 26.1017 16.0644 25.6652 15.5459C25.1964 14.9905 24.5429 14.598 23.8203 14.368V12.9688C23.8203 12.321 23.2307 11.7969 22.502 11.7969C21.7733 11.7969 21.1836 12.321 21.1836 12.9688V14.3565C19.6524 14.8418 18.5469 16.1305 18.5469 17.6562C18.5469 20.3605 20.8296 20.848 22.1942 21.1398C23.653 21.4511 23.8203 21.5747 23.8203 22.3438C23.8203 22.9903 23.2293 23.5156 22.502 23.5156C22.0835 23.5156 21.6985 23.3451 21.4475 23.0464C21.0111 22.5291 20.1871 22.4273 19.6013 22.813C19.0194 23.2009 18.9022 23.9356 19.3387 24.4541C19.8075 25.0095 20.461 25.402 21.1836 25.632V27.0312C21.1836 27.679 21.7733 28.2031 22.502 28.2031C23.2307 28.2031 23.8203 27.679 23.8203 27.0312V25.6435C25.3515 25.1582 26.457 23.8695 26.457 22.3438C26.457 19.6395 24.1743 19.152 22.8097 18.8602Z" fill="url(#paint0_linear_6_29)"/>
<path d="M45 20.0781C45 10.0955 36.6225 1.60164 25.513 0.321016C24.8332 0.236328 24.2268 0.620859 24.0646 1.19875L22.7682 5.80961C22.5722 6.50148 23.1163 7.19523 23.9295 7.2607C31.4328 7.85352 37.0898 13.3639 37.0898 20.0781C37.0898 24.4005 34.6462 28.4186 30.641 30.7944L28.9158 28.7505C28.2571 27.9665 26.8506 28.2076 26.5829 29.1693L23.9462 38.5443C23.7375 39.2813 24.3664 40 25.2246 40H35.7715C36.859 40 37.4754 38.8936 36.8259 38.1255L35.4007 36.4352C41.4388 32.7067 45 26.6825 45 20.0781ZM21.0705 32.7393C13.5672 32.1465 7.91016 26.6361 7.91016 19.9219C7.91016 15.5995 10.3538 11.5814 14.359 9.20563L16.0842 11.2495C16.7372 12.0243 18.1474 11.8 18.4171 10.8307L21.0538 1.4557C21.2625 0.718672 20.6336 0 19.7754 0H9.22852C8.14096 0 7.52458 1.10641 8.17409 1.87453L9.59933 3.56484C3.56115 7.29328 0 13.3175 0 19.9219C0 29.9045 8.37747 38.3984 19.487 39.679C20.1432 39.7568 20.7719 39.384 20.9354 38.8013L22.2318 34.1904C22.4278 33.4985 21.8837 32.8048 21.0705 32.7393Z" fill="url(#paint1_linear_6_29)"/>
<defs>
<linearGradient id="paint0_linear_6_29" x1="22.502" y1="28.2031" x2="22.502" y2="11.7969" gradientUnits="userSpaceOnUse">
<stop stop-color="#C3FFE8"/>
<stop offset="0.9973" stop-color="#F0FFF4"/>
</linearGradient>
<linearGradient id="paint1_linear_6_29" x1="22.5" y1="40" x2="22.5" y2="0" gradientUnits="userSpaceOnUse">
<stop stop-color="#00B59C"/>
<stop offset="1" stop-color="#9CFFAC"/>
</linearGradient>
</defs>
</svg>
