<svg width="24" height="24" viewBox="0 0 24 24" fill="none" xmlns="http://www.w3.org/2000/svg">
<path fill-rule="evenodd" clip-rule="evenodd" d="M4.951 2.48149C5.72893 2.15847 6.56298 1.99219 7.40531 1.99219C8.24764 1.99219 9.08168 2.15847 9.85961 2.48149C10.6375 2.80451 11.3441 3.27792 11.9386 3.87457L11.942 3.87791L12.0003 3.93702L12.0587 3.87792L12.062 3.87457C12.6566 3.27792 13.3631 2.80451 14.141 2.48149C14.9189 2.15847 15.753 1.99219 16.5953 1.99219C17.4376 1.99219 18.2717 2.15847 19.0496 2.48149C19.8273 2.8044 20.5336 3.27759 21.128 3.87395C23.6731 6.41964 23.7296 10.6288 20.7139 13.701L20.7074 13.7076L12.7074 21.7076C12.5199 21.8951 12.2655 22.0004 12.0003 22.0004C11.7351 22.0004 11.4807 21.8951 11.2932 21.7076L3.28664 13.701C0.270943 10.6288 0.327563 6.41964 2.87259 3.87395C3.46705 3.27759 4.17334 2.8044 4.951 2.48149ZM7.40531 3.99219C6.82621 3.99219 6.2528 4.1065 5.71797 4.32858C5.18314 4.55066 4.69742 4.87613 4.28864 5.28632L4.28741 5.28755C2.5938 6.98117 2.39006 9.9297 4.71082 12.2967L12.0003 19.5862L19.2898 12.2968C21.6106 9.92971 21.4068 6.98117 19.7132 5.28755L19.712 5.28632C19.3032 4.87613 18.8175 4.55066 18.2826 4.32858C17.7478 4.1065 17.1744 3.99219 16.5953 3.99219C16.0162 3.99219 15.4428 4.1065 14.908 4.32858C14.3738 4.55037 13.8887 4.87527 13.4803 5.28471C13.4797 5.28524 13.4792 5.28578 13.4786 5.28632L12.712 6.06298C12.5241 6.25331 12.2678 6.36045 12.0003 6.36045C11.7329 6.36045 11.4765 6.25331 11.2887 6.06298L10.522 5.28632C10.5214 5.28578 10.5209 5.28524 10.5204 5.28471C10.1119 4.87527 9.62677 4.55037 9.09264 4.32858C8.55781 4.1065 7.98441 3.99219 7.40531 3.99219Z" fill="#253D4E"/>
</svg>
